<svg width="156.505493" height="29.052002" viewBox="0 0 156.505 29.052" fill="none" xmlns="http://www.w3.org/2000/svg" xmlns:xlink="http://www.w3.org/1999/xlink">
	<desc>
			Created with Pixso.
	</desc>
	<defs/>
	<path id="BookShelter" d="M3.99604 29.052C2.67604 29.052 1.68004 28.824 1.00804 28.368C0.33604 27.936 4.00543e-05 27.204 4.00543e-05 26.172C4.00543e-05 26.1 0.0600401 26.064 0.18004 26.064C0.34804 26.064 0.64804 26.124 1.08004 26.244C1.51204 26.364 2.34004 26.424 3.56404 26.424C5.62804 26.424 7.53604 26.196 9.28804 25.74C11.04 25.26 12.552 24.612 13.824 23.796C15.12 22.98 16.116 22.068 16.812 21.06C17.532 20.028 17.892 18.972 17.892 17.892C17.892 16.908 17.616 16.116 17.064 15.516C16.512 14.916 15.78 14.46 14.868 14.148C13.98 13.836 13.008 13.632 11.952 13.536C10.896 13.416 9.85204 13.356 8.82004 13.356C8.36404 13.356 7.89604 13.368 7.41604 13.392C6.96004 13.392 6.52804 13.392 6.12004 13.392C5.56804 15.336 5.02804 17.292 4.50004 19.26C3.97204 21.228 3.43204 23.136 2.88004 24.984C2.28004 24.984 1.77604 24.816 1.36804 24.48C0.96004 24.144 0.75604 23.736 0.75604 23.256C0.75604 22.968 0.81604 22.632 0.93604 22.248C1.05604 21.864 1.16404 21.516 1.26004 21.204C1.40404 20.724 1.65604 19.92 2.01604 18.792C2.37604 17.664 2.80804 16.344 3.31204 14.832C3.84004 13.32 4.41604 11.736 5.04004 10.08C5.66404 8.42399 6.30004 6.80399 6.94804 5.21999C7.62004 3.63599 8.26804 2.23199 8.89204 1.00799C7.88404 1.17599 7.03204 1.41599 6.33604 1.72799C5.66404 2.03999 5.13604 2.32799 4.75204 2.592C4.36804 2.83199 4.09204 2.95199 3.92404 2.95199C3.75604 2.95199 3.51604 2.83199 3.20404 2.592C2.91604 2.35199 2.77204 2.14799 2.77204 1.97999C3.97204 1.47599 5.22004 1.01999 6.51604 0.611994C7.83604 0.203993 9.43204 -7.62939e-06 11.304 -7.62939e-06C12.096 -7.62939e-06 12.972 0.0719929 13.932 0.215992C14.892 0.335993 15.804 0.599993 16.668 1.00799C17.532 1.39199 18.24 1.96799 18.792 2.73599C19.344 3.47999 19.62 4.47599 19.62 5.72399C19.62 6.89999 19.368 7.90799 18.864 8.74799C18.36 9.56399 17.7 10.248 16.884 10.8C16.068 11.328 15.18 11.748 14.22 12.06C13.26 12.372 12.312 12.6 11.376 12.744C13.152 12.84 14.58 13.092 15.66 13.5C16.764 13.908 17.592 14.4 18.144 14.976C18.72 15.528 19.104 16.116 19.296 16.74C19.488 17.364 19.584 17.964 19.584 18.54C19.584 19.932 19.224 21.192 18.504 22.32C17.784 23.448 16.836 24.432 15.66 25.272C14.484 26.112 13.2 26.808 11.808 27.36C10.416 27.936 9.03604 28.356 7.66804 28.62C6.30004 28.908 5.07604 29.052 3.99604 29.052ZM6.33604 12.564C7.65604 12.516 8.96404 12.372 10.26 12.132C11.58 11.868 12.78 11.46 13.86 10.908C14.94 10.356 15.804 9.63599 16.452 8.74799C17.124 7.85999 17.46 6.75599 17.46 5.43599C17.46 4.18799 17.16 3.22799 16.56 2.55599C15.984 1.88399 15.228 1.41599 14.292 1.15199C13.38 0.887993 12.408 0.755993 11.376 0.755993C11.256 0.755993 11.136 0.755993 11.016 0.755993C10.92 0.755993 10.812 0.767994 10.692 0.791994C9.82804 2.47199 9.03604 4.31999 8.31604 6.33599C7.62004 8.35199 6.96004 10.428 6.33604 12.564ZM23.7024 27.072C22.6704 27.072 21.9384 26.748 21.5064 26.1C21.0744 25.476 20.8584 24.708 20.8584 23.796C20.8584 23.052 20.9784 22.284 21.2184 21.492C21.4584 20.7 21.7704 19.956 22.1544 19.26C22.5624 18.564 23.0064 18 23.4864 17.568C23.9904 17.136 24.4944 16.92 24.9984 16.92C25.2144 16.92 25.4664 16.98 25.7544 17.1C25.5384 17.292 25.2744 17.652 24.9624 18.18C24.6744 18.684 24.3984 19.272 24.1344 19.944C23.8704 20.592 23.6424 21.24 23.4504 21.888C23.2824 22.536 23.1984 23.088 23.1984 23.544C23.1984 24.264 23.3184 24.792 23.5584 25.128C23.7984 25.44 24.1104 25.596 24.4944 25.596C24.9984 25.596 25.5984 25.332 26.2944 24.804C26.9904 24.252 27.6744 23.556 28.3464 22.716C27.6744 22.164 27.1464 21.444 26.7624 20.556C26.4024 19.644 26.2224 18.72 26.2224 17.784C26.2224 16.992 26.3544 16.248 26.6184 15.552C26.9064 14.856 27.3144 14.304 27.8424 13.896C28.3704 13.464 29.0064 13.248 29.7504 13.248C30.7344 13.248 31.3944 13.512 31.7304 14.04C32.0664 14.568 32.2344 15.228 32.2344 16.02C32.2344 16.956 32.0064 18 31.5504 19.152C31.0944 20.28 30.5184 21.372 29.8224 22.428C30.2544 22.668 30.7104 22.788 31.1904 22.788C31.7424 22.788 32.4144 22.608 33.2064 22.248C33.9984 21.864 34.6104 21.18 35.0424 20.196L35.4744 20.556C34.9944 21.684 34.3104 22.488 33.4224 22.968C32.5584 23.424 31.7304 23.652 30.9384 23.652C30.2904 23.652 29.7144 23.532 29.2104 23.292C28.3944 24.372 27.4944 25.272 26.5104 25.992C25.5504 26.712 24.6144 27.072 23.7024 27.072ZM28.9944 21.78C29.5944 20.892 30.0864 19.968 30.4704 19.008C30.8784 18.024 31.0824 17.1 31.0824 16.236C31.0824 15.54 30.9744 15.036 30.7584 14.724C30.5664 14.388 30.3144 14.22 30.0024 14.22C29.5224 14.22 29.0304 14.568 28.5264 15.264C28.0224 15.96 27.7704 16.836 27.7704 17.892C27.7704 18.588 27.8664 19.296 28.0584 20.016C28.2744 20.712 28.5864 21.3 28.9944 21.78ZM36.8508 27.072C35.8188 27.072 35.0868 26.748 34.6548 26.1C34.2228 25.476 34.0068 24.708 34.0068 23.796C34.0068 23.052 34.1268 22.284 34.3668 21.492C34.6068 20.7 34.9188 19.956 35.3028 19.26C35.7108 18.564 36.1548 18 36.6348 17.568C37.1388 17.136 37.6428 16.92 38.1468 16.92C38.3628 16.92 38.6148 16.98 38.9028 17.1C38.6868 17.292 38.4228 17.652 38.1108 18.18C37.8228 18.684 37.5468 19.272 37.2828 19.944C37.0188 20.592 36.7908 21.24 36.5988 21.888C36.4308 22.536 36.3468 23.088 36.3468 23.544C36.3468 24.264 36.4668 24.792 36.7068 25.128C36.9468 25.44 37.2588 25.596 37.6428 25.596C38.1468 25.596 38.7468 25.332 39.4428 24.804C40.1388 24.252 40.8228 23.556 41.4948 22.716C40.8228 22.164 40.2948 21.444 39.9108 20.556C39.5508 19.644 39.3708 18.72 39.3708 17.784C39.3708 16.992 39.5028 16.248 39.7668 15.552C40.0548 14.856 40.4628 14.304 40.9908 13.896C41.5188 13.464 42.1548 13.248 42.8988 13.248C43.8828 13.248 44.5428 13.512 44.8788 14.04C45.2148 14.568 45.3828 15.228 45.3828 16.02C45.3828 16.956 45.1548 18 44.6988 19.152C44.2428 20.28 43.6668 21.372 42.9708 22.428C43.4028 22.668 43.8588 22.788 44.3388 22.788C44.8908 22.788 45.5628 22.608 46.3548 22.248C47.1468 21.864 47.7588 21.18 48.1908 20.196L48.6228 20.556C48.1428 21.684 47.4588 22.488 46.5708 22.968C45.7068 23.424 44.8788 23.652 44.0868 23.652C43.4388 23.652 42.8628 23.532 42.3588 23.292C41.5428 24.372 40.6428 25.272 39.6588 25.992C38.6988 26.712 37.7628 27.072 36.8508 27.072ZM42.1428 21.78C42.7428 20.892 43.2348 19.968 43.6188 19.008C44.0268 18.024 44.2308 17.1 44.2308 16.236C44.2308 15.54 44.1228 15.036 43.9068 14.724C43.7148 14.388 43.4628 14.22 43.1508 14.22C42.6708 14.22 42.1788 14.568 41.6748 15.264C41.1708 15.96 40.9188 16.836 40.9188 17.892C40.9188 18.588 41.0148 19.296 41.2068 20.016C41.4228 20.712 41.7348 21.3 42.1428 21.78ZM58.2073 27.288C57.5353 27.288 56.9593 27.06 56.4793 26.604C55.9993 26.148 55.6153 25.572 55.3273 24.876C55.0633 24.18 54.8593 23.472 54.7153 22.752C54.5953 22.008 54.5353 21.36 54.5353 20.808C54.7993 20.808 55.1833 20.748 55.6873 20.628C56.1913 20.484 56.7073 20.28 57.2353 20.016C57.7633 19.728 58.2073 19.368 58.5673 18.936C58.9513 18.48 59.1433 17.952 59.1433 17.352C59.1433 16.848 58.9633 16.452 58.6033 16.164C58.2433 15.876 57.8233 15.732 57.3433 15.732C56.5993 15.732 55.9033 15.996 55.2553 16.524C54.6073 17.028 54.0193 17.7 53.4913 18.54C52.9873 19.356 52.5313 20.232 52.1233 21.168C51.7153 22.104 51.3673 22.992 51.0793 23.832C50.7913 24.672 50.5513 25.368 50.3593 25.92C50.2153 26.352 50.0113 26.64 49.7473 26.784C49.4833 26.952 49.2073 27.036 48.9193 27.036C48.5113 27.036 48.2113 26.868 48.0193 26.532C47.8513 26.196 47.7433 25.776 47.6953 25.272C47.6713 24.744 47.6593 24.204 47.6593 23.652C47.6593 22.404 47.8633 20.964 48.2713 19.332C48.6793 17.7 49.2193 16.008 49.8913 14.256C50.5873 12.48 51.3433 10.764 52.1593 9.10799C52.9753 7.45199 53.7913 5.95199 54.6073 4.60799C55.4233 3.26399 56.1793 2.19599 56.8753 1.40399C57.5713 0.611992 58.1353 0.215992 58.5673 0.215992C58.9033 0.215992 59.1673 0.443993 59.3593 0.899992C59.5753 1.35599 59.6833 1.90799 59.6833 2.55599C59.6833 3.37199 59.5033 4.29599 59.1433 5.32799C58.7833 6.33599 58.2673 7.35599 57.5953 8.38799C56.9473 9.41999 56.1673 10.392 55.2553 11.304C54.3673 12.216 53.3953 12.996 52.3393 13.644C51.5473 15.588 50.9473 17.484 50.5393 19.332C50.1553 21.156 49.9633 22.692 49.9633 23.94C50.3473 22.98 50.8033 21.924 51.3313 20.772C51.8833 19.62 52.5073 18.516 53.2033 17.46C53.8993 16.404 54.6553 15.54 55.4713 14.868C56.2873 14.196 57.1393 13.86 58.0273 13.86C58.9153 13.86 59.6713 14.172 60.2953 14.796C60.9193 15.42 61.2313 16.176 61.2313 17.064C61.2313 17.832 61.0273 18.492 60.6193 19.044C60.2353 19.572 59.7553 20.004 59.1793 20.34C58.6273 20.652 58.0633 20.892 57.4873 21.06C56.9353 21.204 56.4793 21.276 56.1193 21.276C56.1433 21.468 56.2153 21.816 56.3353 22.32C56.4553 22.824 56.6233 23.352 56.8393 23.904C57.0793 24.456 57.3673 24.936 57.7033 25.344C58.0393 25.728 58.4473 25.92 58.9273 25.92C59.9593 25.92 60.9193 25.356 61.8073 24.228C62.6953 23.076 63.5113 21.684 64.2553 20.052L64.6153 20.412C64.2793 21.588 63.7633 22.704 63.0673 23.76C62.3713 24.792 61.5913 25.632 60.7273 26.28C59.8873 26.952 59.0473 27.288 58.2073 27.288ZM52.9513 12.204C54.0553 11.316 55.0153 10.308 55.8313 9.17999C56.6713 8.05199 57.3193 6.97199 57.7753 5.93999C58.2313 4.88399 58.4593 4.05599 58.4593 3.45599C58.4593 3.23999 58.4233 3.13199 58.3513 3.13199C58.1113 3.13199 57.6913 3.55199 57.0913 4.39199C56.5153 5.23199 55.8553 6.34799 55.1113 7.73999C54.3673 9.10799 53.6473 10.596 52.9513 12.204ZM70.8897 29.052C69.5937 29.052 68.3697 28.812 67.2177 28.332C66.0657 27.876 65.1297 27.168 64.4097 26.208C63.7137 25.248 63.3657 24.048 63.3657 22.608C63.3657 21.36 63.6057 20.388 64.0857 19.692C64.5897 18.996 65.2017 18.504 65.9217 18.216C66.6417 17.928 67.3257 17.784 67.9737 17.784C67.3257 18.48 66.8337 19.248 66.4977 20.088C66.1617 20.928 65.9937 21.768 65.9937 22.608C65.9937 23.496 66.1857 24.324 66.5697 25.092C66.9777 25.86 67.5897 26.472 68.4057 26.928C69.2217 27.408 70.2537 27.648 71.5017 27.648C72.5817 27.648 73.6377 27.444 74.6697 27.036C75.7017 26.652 76.5417 26.076 77.1897 25.308C77.8617 24.516 78.1977 23.544 78.1977 22.392C78.1977 21.36 77.9337 20.472 77.4057 19.728C76.8777 18.984 76.1937 18.324 75.3537 17.748C74.5377 17.172 73.6617 16.62 72.7257 16.092C71.7897 15.564 70.9017 15.012 70.0617 14.436C69.2457 13.836 68.5737 13.152 68.0457 12.384C67.5177 11.616 67.2537 10.692 67.2537 9.61199C67.2537 8.60399 67.4937 7.54799 67.9737 6.44399C68.4537 5.33999 69.1377 4.29599 70.0257 3.31199C70.9377 2.32799 72.0177 1.53599 73.2657 0.935993C74.5377 0.311995 75.9537 -7.62939e-06 77.5137 -7.62939e-06C78.9297 -7.62939e-06 79.9137 0.347994 80.4657 1.04399C81.0177 1.71599 81.2937 2.56799 81.2937 3.59999C81.2937 4.46399 81.1377 5.39999 80.8257 6.40799C80.5377 7.39199 80.1777 8.33999 79.7457 9.25199C79.3137 10.14 78.9057 10.896 78.5217 11.52C78.0897 11.424 77.7777 11.244 77.5857 10.98C77.4177 10.692 77.3337 10.356 77.3337 9.97199C77.3337 9.46799 77.4417 8.89199 77.6577 8.24399C77.8737 7.59599 78.1137 6.92399 78.3777 6.22799C78.6657 5.53199 78.9177 4.85999 79.1337 4.21199C79.3497 3.53999 79.4577 2.93999 79.4577 2.41199C79.4577 1.93199 79.3137 1.55999 79.0257 1.29599C78.7377 1.00799 78.2097 0.863993 77.4417 0.863993C76.3137 0.863993 75.2697 1.12799 74.3097 1.65599C73.3497 2.18399 72.5097 2.86799 71.7897 3.70799C71.0697 4.52399 70.5057 5.38799 70.0977 6.29999C69.7137 7.21199 69.5217 8.03999 69.5217 8.78399C69.5217 9.67199 69.7737 10.44 70.2777 11.088C70.8057 11.712 71.4777 12.288 72.2937 12.816C73.1097 13.32 73.9737 13.836 74.8857 14.364C75.8217 14.868 76.6977 15.432 77.5137 16.056C78.3297 16.68 78.9897 17.424 79.4937 18.288C80.0217 19.128 80.2857 20.16 80.2857 21.384C80.2857 22.632 80.0097 23.736 79.4577 24.696C78.9057 25.632 78.1617 26.424 77.2257 27.072C76.3137 27.72 75.3057 28.212 74.2017 28.548C73.0977 28.884 71.9937 29.052 70.8897 29.052ZM84.5744 27.288C84.1184 27.288 83.7584 26.904 83.4944 26.136C83.2304 25.368 83.0984 24.504 83.0984 23.544C83.0984 22.392 83.2904 21.024 83.6744 19.44C84.0584 17.856 84.5624 16.188 85.1864 14.436C85.8104 12.684 86.5064 10.968 87.2744 9.28799C88.0664 7.60799 88.8704 6.08399 89.6864 4.71599C90.5024 3.34799 91.2704 2.25599 91.9904 1.43999C92.7104 0.623993 93.3344 0.215992 93.8624 0.215992C94.2944 0.215992 94.5944 0.479992 94.7624 1.00799C94.9544 1.51199 95.0504 2.00399 95.0504 2.48399C95.0504 3.15599 94.8944 3.97199 94.5824 4.93199C94.2944 5.89199 93.8864 6.92399 93.3584 8.02799C92.8304 9.10799 92.2184 10.176 91.5224 11.232C90.8264 12.288 90.0704 13.26 89.2544 14.148C88.4384 15.012 87.6104 15.696 86.7704 16.2C86.4824 16.896 86.2304 17.676 86.0145 18.54C85.8224 19.404 85.6784 20.256 85.5824 21.096C85.4865 21.912 85.4384 22.644 85.4384 23.292C85.4384 23.556 85.4384 23.784 85.4384 23.976C85.4624 24.168 85.4865 24.348 85.5104 24.516C86.0864 22.86 86.7344 21.324 87.4544 19.908C88.1744 18.492 88.9784 17.352 89.8664 16.488C90.7784 15.624 91.7625 15.192 92.8185 15.192C93.8024 15.192 94.4984 15.54 94.9064 16.236C95.3384 16.908 95.5544 17.64 95.5544 18.432C95.5544 19.176 95.4224 19.896 95.1584 20.592C94.9184 21.288 94.6665 21.96 94.4025 22.608C94.1384 23.256 94.0064 23.88 94.0064 24.48C94.0064 24.96 94.1024 25.308 94.2944 25.524C94.5104 25.74 94.7744 25.848 95.0864 25.848C95.6384 25.848 96.2505 25.584 96.9224 25.056C97.6184 24.528 98.3024 23.832 98.9744 22.968C99.6464 22.08 100.222 21.12 100.702 20.088L101.17 20.52C100.666 21.696 100.054 22.764 99.3344 23.724C98.6144 24.66 97.8224 25.404 96.9585 25.956C96.0944 26.508 95.1944 26.784 94.2584 26.784C93.4424 26.784 92.8184 26.568 92.3864 26.136C91.9784 25.704 91.7744 25.164 91.7744 24.516C91.7744 24.012 91.8704 23.448 92.0624 22.824C92.2544 22.2 92.4344 21.564 92.6024 20.916C92.7944 20.268 92.8904 19.656 92.8904 19.08C92.8904 18.456 92.7584 18.012 92.4944 17.748C92.2304 17.484 91.9064 17.352 91.5224 17.352C90.9224 17.352 90.3824 17.592 89.9025 18.072C89.4224 18.552 88.9784 19.176 88.5704 19.944C88.1864 20.688 87.8144 21.48 87.4544 22.32C87.1184 23.16 86.7944 23.964 86.4824 24.732C86.1704 25.476 85.8584 26.088 85.5464 26.568C85.2344 27.048 84.9104 27.288 84.5744 27.288ZM87.2384 14.796C87.9104 14.268 88.5584 13.596 89.1824 12.78C89.8304 11.964 90.4305 11.1 90.9824 10.188C91.5344 9.252 92.0264 8.33999 92.4585 7.45199C92.8904 6.56399 93.2264 5.75999 93.4664 5.03999C93.7065 4.31999 93.8264 3.77999 93.8264 3.41999C93.8264 3.22799 93.7785 3.13199 93.6824 3.13199C93.5145 3.13199 93.1664 3.46799 92.6384 4.13999C92.1344 4.78799 91.5464 5.66399 90.8745 6.76799C90.2024 7.87199 89.5424 9.11999 88.8944 10.512C88.2464 11.904 87.6944 13.332 87.2384 14.796ZM103.892 27.504C102.428 27.504 101.324 27.096 100.58 26.28C99.8595 25.488 99.4995 24.504 99.4995 23.328C99.4995 22.248 99.7635 21.108 100.292 19.908C100.844 18.708 101.564 17.58 102.452 16.524C103.364 15.468 104.36 14.616 105.44 13.968C106.52 13.296 107.588 12.96 108.644 12.96C109.196 12.96 109.7 13.104 110.156 13.392C110.636 13.68 110.876 14.268 110.876 15.156C110.876 16.068 110.6 16.932 110.048 17.748C109.52 18.54 108.812 19.248 107.924 19.872C107.06 20.496 106.1 21.012 105.044 21.42C104.012 21.804 102.98 22.044 101.948 22.14C101.9 22.38 101.864 22.608 101.84 22.824C101.816 23.04 101.804 23.244 101.804 23.436C101.804 24.18 101.996 24.876 102.38 25.524C102.788 26.148 103.544 26.46 104.648 26.46C105.68 26.46 106.7 26.172 107.708 25.596C108.716 24.996 109.652 24.216 110.516 23.256C111.38 22.296 112.112 21.24 112.712 20.088L113.144 20.412C112.496 21.852 111.668 23.1 110.66 24.156C109.676 25.212 108.596 26.028 107.42 26.604C106.268 27.204 105.092 27.504 103.892 27.504ZM102.128 21.456C102.776 21.24 103.508 20.928 104.324 20.52C105.14 20.088 105.92 19.584 106.664 19.008C107.432 18.432 108.056 17.796 108.536 17.1C109.04 16.404 109.292 15.672 109.292 14.904C109.292 14.64 109.244 14.436 109.148 14.292C109.052 14.148 108.848 14.076 108.536 14.076C107.96 14.076 107.348 14.304 106.7 14.76C106.052 15.192 105.428 15.768 104.828 16.488C104.228 17.208 103.688 18 103.208 18.864C102.728 19.728 102.368 20.592 102.128 21.456ZM114.98 27C113.948 27 113.204 26.64 112.748 25.92C112.316 25.224 112.1 24.348 112.1 23.292C112.1 22.14 112.316 20.772 112.748 19.188C113.18 17.604 113.744 15.936 114.44 14.184C115.16 12.432 115.94 10.728 116.78 9.07199C117.62 7.39199 118.46 5.86799 119.3 4.49999C120.14 3.13199 120.908 2.03999 121.604 1.22399C122.324 0.407993 122.888 -7.62939e-06 123.296 -7.62939e-06C123.56 -7.62939e-06 123.776 0.155993 123.944 0.467995C124.112 0.755993 124.244 1.11599 124.34 1.54799C124.436 1.95599 124.484 2.32799 124.484 2.66399C124.484 3.31199 124.316 4.16399 123.98 5.21999C123.668 6.25199 123.212 7.41599 122.612 8.71199C122.036 9.98399 121.34 11.28 120.524 12.6C119.732 13.896 118.856 15.144 117.896 16.344C116.96 17.544 115.964 18.576 114.908 19.44C114.764 20.088 114.644 20.724 114.548 21.348C114.476 21.948 114.44 22.524 114.44 23.076C114.44 24.924 114.968 25.848 116.024 25.848C116.672 25.848 117.308 25.56 117.932 24.984C118.58 24.408 119.18 23.688 119.732 22.824C120.308 21.936 120.8 21.024 121.208 20.088L121.748 20.376C120.788 22.416 119.744 24.036 118.616 25.236C117.488 26.412 116.276 27 114.98 27ZM115.232 18.216C116.072 17.376 116.888 16.416 117.68 15.336C118.472 14.232 119.204 13.092 119.876 11.916C120.572 10.74 121.184 9.59999 121.712 8.49599C122.24 7.39199 122.648 6.40799 122.936 5.54399C123.224 4.65599 123.368 3.97199 123.368 3.49199C123.368 3.25199 123.332 3.09599 123.26 3.02399C123.212 2.95199 123.164 2.91599 123.116 2.91599C122.924 2.91599 122.588 3.22799 122.108 3.85199C121.652 4.45199 121.112 5.26799 120.488 6.29999C119.864 7.33199 119.228 8.50799 118.58 9.82799C117.932 11.148 117.308 12.528 116.708 13.968C116.132 15.408 115.64 16.824 115.232 18.216ZM123.56 27.576C121.424 27.576 120.356 26.388 120.356 24.012C120.356 22.956 120.548 21.66 120.932 20.124C121.34 18.564 121.844 16.968 122.444 15.336C122.204 15.288 121.976 15.252 121.76 15.228C121.544 15.18 121.34 15.12 121.148 15.048L121.148 14.4C121.34 14.424 121.568 14.448 121.832 14.472C122.096 14.496 122.396 14.52 122.732 14.544C123.236 13.248 123.776 12 124.352 10.8C124.928 9.57599 125.492 8.49599 126.044 7.55999C126.62 6.59999 127.16 5.84399 127.664 5.29199C128.192 4.716 128.636 4.42799 128.996 4.42799C129.188 4.42799 129.356 4.49999 129.5 4.64399C129.668 4.76399 129.752 4.95599 129.752 5.21999C129.752 5.62799 129.5 6.29999 128.996 7.23599C128.492 8.14799 127.868 9.23999 127.124 10.512C126.38 11.784 125.66 13.164 124.964 14.652L126.296 14.652C127.088 14.652 127.916 14.64 128.78 14.616C129.668 14.592 130.556 14.532 131.444 14.436L131.444 15.084C128.828 15.372 126.716 15.516 125.108 15.516L124.568 15.516C124.016 16.788 123.548 18.096 123.164 19.44C122.78 20.784 122.588 22.092 122.588 23.364C122.588 24.396 122.744 25.14 123.056 25.596C123.368 26.028 123.884 26.244 124.604 26.244C125.852 26.244 127.076 25.692 128.276 24.588C129.476 23.484 130.532 21.984 131.444 20.088L131.912 20.448C131.336 21.792 130.604 23.004 129.716 24.084C128.852 25.164 127.892 26.016 126.836 26.64C125.78 27.264 124.688 27.576 123.56 27.576ZM134.653 27.504C133.189 27.504 132.085 27.096 131.341 26.28C130.621 25.488 130.261 24.504 130.261 23.328C130.261 22.248 130.525 21.108 131.053 19.908C131.605 18.708 132.325 17.58 133.213 16.524C134.125 15.468 135.121 14.616 136.201 13.968C137.281 13.296 138.349 12.96 139.405 12.96C139.957 12.96 140.461 13.104 140.917 13.392C141.397 13.68 141.637 14.268 141.637 15.156C141.637 16.068 141.361 16.932 140.809 17.748C140.281 18.54 139.573 19.248 138.685 19.872C137.821 20.496 136.861 21.012 135.805 21.42C134.773 21.804 133.741 22.044 132.709 22.14C132.661 22.38 132.625 22.608 132.601 22.824C132.577 23.04 132.565 23.244 132.565 23.436C132.565 24.18 132.757 24.876 133.141 25.524C133.549 26.148 134.305 26.46 135.409 26.46C136.441 26.46 137.461 26.172 138.469 25.596C139.477 24.996 140.413 24.216 141.277 23.256C142.141 22.296 142.873 21.24 143.473 20.088L143.905 20.412C143.257 21.852 142.429 23.1 141.421 24.156C140.437 25.212 139.357 26.028 138.181 26.604C137.029 27.204 135.853 27.504 134.653 27.504ZM132.889 21.456C133.537 21.24 134.269 20.928 135.085 20.52C135.901 20.088 136.681 19.584 137.425 19.008C138.193 18.432 138.817 17.796 139.297 17.1C139.801 16.404 140.053 15.672 140.053 14.904C140.053 14.64 140.005 14.436 139.909 14.292C139.813 14.148 139.609 14.076 139.297 14.076C138.721 14.076 138.109 14.304 137.461 14.76C136.813 15.192 136.189 15.768 135.589 16.488C134.989 17.208 134.449 18 133.969 18.864C133.489 19.728 133.129 20.592 132.889 21.456ZM148.982 26.856C148.166 26.856 147.518 26.64 147.038 26.208C146.582 25.776 146.354 25.212 146.354 24.516C146.354 23.796 146.522 23.04 146.858 22.248C147.194 21.456 147.518 20.676 147.83 19.908C148.166 19.116 148.334 18.408 148.334 17.784C148.334 17.016 148.106 16.452 147.65 16.092C147.218 15.708 146.774 15.36 146.318 15.048C145.766 16.464 145.19 17.808 144.59 19.08C143.99 20.352 143.498 21.312 143.114 21.96L142.79 21.348C143.126 20.724 143.558 19.812 144.086 18.612C144.638 17.412 145.178 16.044 145.706 14.508C145.466 14.268 145.346 13.98 145.346 13.644C145.346 12.924 145.55 12.336 145.958 11.88C146.366 11.424 146.666 11.196 146.858 11.196C147.122 11.196 147.266 11.316 147.29 11.556C147.338 11.772 147.362 11.94 147.362 12.06C147.362 12.18 147.29 12.42 147.146 12.78C147.026 13.116 146.966 13.32 146.966 13.392C146.966 13.728 147.146 14.04 147.506 14.328C147.89 14.592 148.322 14.904 148.802 15.264C149.282 15.6 149.702 16.02 150.062 16.524C150.446 17.004 150.638 17.628 150.638 18.396C150.638 19.116 150.482 19.848 150.17 20.592C149.882 21.336 149.582 22.044 149.27 22.716C148.982 23.388 148.838 23.976 148.838 24.48C148.838 24.912 148.946 25.2 149.162 25.344C149.378 25.488 149.63 25.56 149.918 25.56C150.494 25.56 151.082 25.38 151.682 25.02C152.306 24.66 152.906 24.204 153.482 23.652C154.058 23.1 154.574 22.524 155.03 21.924C155.486 21.3 155.822 20.724 156.038 20.196L156.506 20.556C156.05 21.564 155.426 22.56 154.634 23.544C153.842 24.504 152.954 25.296 151.97 25.92C151.01 26.544 150.014 26.856 148.982 26.856Z" fill="#FFFFFF" fill-opacity="1.000000" fill-rule="evenodd"/>
</svg>
